<svg xmlns="http://www.w3.org/2000/svg" width="96.449" height="30" viewBox="0 0 96.449 30">
  <g id="엔트리_로고_배경_X" data-name="엔트리 로고 배경 X" transform="translate(5586 103)">
    <path id="패스_97" data-name="패스 97" d="M-29.175,0V-18.909h12.3v2.871H-25.75V-10.9h8.236v2.871H-25.75v5.161H-16.8V0Zm17.692-8.31V0h-3.342V-14.182h3.195v2.41h.166A4.045,4.045,0,0,1-9.9-13.665a4.775,4.775,0,0,1,2.664-.7,5.059,5.059,0,0,1,2.562.628,4.266,4.266,0,0,1,1.7,1.819,6.249,6.249,0,0,1,.6,2.89V0H-5.722V-8.513a3.176,3.176,0,0,0-.734-2.225,2.608,2.608,0,0,0-2.027-.8,3.109,3.109,0,0,0-1.556.383,2.681,2.681,0,0,0-1.062,1.1A3.673,3.673,0,0,0-11.483-8.31ZM6.809-14.182V-11.6H-1.343v-2.585Zm-6.14-3.4H4.012V-4.266a2.068,2.068,0,0,0,.208,1.029,1.071,1.071,0,0,0,.549.485,2.124,2.124,0,0,0,.757.129A3.348,3.348,0,0,0,6.1-2.668q.263-.046.4-.083L7.068-.138a7.534,7.534,0,0,1-.762.2A6.356,6.356,0,0,1,5.1.194,5.4,5.4,0,0,1,2.839-.189,3.463,3.463,0,0,1,1.246-1.5,3.883,3.883,0,0,1,.669-3.712ZM8.307,0V-14.182h3.241v2.364H11.7a3.551,3.551,0,0,1,1.334-1.9,3.656,3.656,0,0,1,2.165-.669q.277,0,.623.023a4.568,4.568,0,0,1,.577.069v3.075a3.679,3.679,0,0,0-.669-.134,6.775,6.775,0,0,0-.882-.06,3.386,3.386,0,0,0-1.639.392,2.93,2.93,0,0,0-1.14,1.085,3.044,3.044,0,0,0-.415,1.6V0ZM19.841,5.29a6.976,6.976,0,0,1-1.26-.106,4.376,4.376,0,0,1-.919-.254l.776-2.594a3.394,3.394,0,0,0,1.833.106,2.1,2.1,0,0,0,1.223-1.38L21.78.3,16.637-14.182h3.545l3.268,10.71H23.6l3.278-10.71,3.573.018-5.7,15.881A6.414,6.414,0,0,1,23.7,3.629a4.371,4.371,0,0,1-1.6,1.233A5.431,5.431,0,0,1,19.841,5.29Z" transform="translate(-5520 -80)"/>
    <g id="그룹_54" data-name="그룹 54" transform="translate(-5608 -131.726)">
      <path id="사각형_216" data-name="사각형 216" d="M25.648,0H26a0,0,0,0,1,0,0V25.648a0,0,0,0,1,0,0H0a0,0,0,0,1,0,0v0A25.648,25.648,0,0,1,25.648,0Z" transform="translate(22 28.726)" fill="#ff9b9f"/>
      <path id="패스_55" data-name="패스 55" d="M0,0H.352A25.648,25.648,0,0,1,26,25.648H0Z" transform="translate(22 28.726)" fill="#ffebec"/>
      <path id="패스_51" data-name="패스 51" d="M0,0C14.2,0,19.149,15.477,19.149,29.529L0,25.445Z" transform="translate(22 29.197)" fill="#f57278"/>
    </g>
  </g>
</svg>
