<svg xmlns="http://www.w3.org/2000/svg" width="20.507" height="17.574" viewBox="0 0 20.507 17.574">
  <path id="눈_감은_아이콘" data-name="눈 감은 아이콘" d="M12.506,8.2a4.649,4.649,0,0,1,4.663,4.627,4.451,4.451,0,0,1-.334,1.693l2.723,2.7a10.94,10.94,0,0,0,3.2-4.393A11.044,11.044,0,0,0,8.785,6.532l2.014,2A4.611,4.611,0,0,1,12.506,8.2ZM3.184,5.676l2.128,2.11.43.426A10.888,10.888,0,0,0,2.25,12.825a11.06,11.06,0,0,0,14.338,6.16l.394.389,2.732,2.7L20.9,20.9,4.364,4.5Zm5.153,5.112L9.783,12.22a2.621,2.621,0,0,0-.073.6,2.782,2.782,0,0,0,2.8,2.773,2.63,2.63,0,0,0,.6-.073l1.446,1.432a4.639,4.639,0,0,1-6.714-4.137A4.571,4.571,0,0,1,8.337,10.788Zm4.018-.719,2.938,2.915.018-.146a2.782,2.782,0,0,0-2.8-2.773Z" transform="translate(-2.25 -4.5)"/>
</svg>
