<svg xmlns="http://www.w3.org/2000/svg" width="86.602" height="104.699" viewBox="0 0 86.602 104.699">
  <path id="파일_오류_모달_아이콘" data-name="파일 오류 모달 아이콘" d="M50.518,27.811V0H5.413A5.166,5.166,0,0,0,0,4.908V99.791A5.166,5.166,0,0,0,5.413,104.7H81.189A5.166,5.166,0,0,0,86.6,99.791V32.719H55.93A5.194,5.194,0,0,1,50.518,27.811Zm14.434,48.26a2.6,2.6,0,0,1-2.706,2.454H24.357a2.6,2.6,0,0,1-2.706-2.454V74.435a2.6,2.6,0,0,1,2.706-2.454H62.245a2.6,2.6,0,0,1,2.706,2.454Zm0-13.087a2.6,2.6,0,0,1-2.706,2.454H24.357a2.6,2.6,0,0,1-2.706-2.454V61.347a2.6,2.6,0,0,1,2.706-2.454H62.245a2.6,2.6,0,0,1,2.706,2.454Zm0-14.723V49.9a2.6,2.6,0,0,1-2.706,2.454H24.357A2.6,2.6,0,0,1,21.65,49.9V48.26a2.6,2.6,0,0,1,2.706-2.454H62.245A2.6,2.6,0,0,1,64.951,48.26ZM86.6,24.927v1.247H57.734V0H59.11a5.705,5.705,0,0,1,3.834,1.431l22.079,20.04A4.672,4.672,0,0,1,86.6,24.927Z" fill="#f57278"/>
</svg>
