<svg xmlns="http://www.w3.org/2000/svg" width="86.981" height="105.399" viewBox="0 0 86.981 105.399">
  <path id="비밀번호_재설정_완료_아이콘" data-name="비밀번호 재설정 완료 아이콘" d="M77.662,46.273H29.512V27.637c0-7.158,6.155-13.1,13.843-13.177,7.766-.072,14.115,5.8,14.115,13.014v2.892A4.5,4.5,0,0,0,62.13,34.7h6.213A4.5,4.5,0,0,0,73,30.367V27.475C73,12.291,59.7-.054,43.394,0S13.979,12.562,13.979,27.746V46.273H9.319C4.174,46.273,0,50.159,0,54.949V96.723c0,4.79,4.174,8.676,9.319,8.676H77.662c5.145,0,9.319-3.886,9.319-8.676V54.949C86.981,50.159,82.807,46.273,77.662,46.273ZM51.257,84.03a7.51,7.51,0,0,1-7.766,7.23,7.51,7.51,0,0,1-7.766-7.23V67.642a7.51,7.51,0,0,1,7.766-7.23,7.51,7.51,0,0,1,7.766,7.23Z" transform="translate(0 0)" fill="#f57278"/>
</svg>
