<svg xmlns="http://www.w3.org/2000/svg" width="117" height="106" viewBox="0 0 117 106">
  <path id="제출_확인_아이콘" data-name="제출 확인 아이콘" d="M7.781,59.625A3.581,3.581,0,0,0,4,62.938v6.625a3.581,3.581,0,0,0,3.781,3.313H30.25V59.625ZM119.346,21.738,96.209,1.449A6.1,6.1,0,0,0,92.192,0H90.75V26.5H121V25.237A4.663,4.663,0,0,0,119.346,21.738ZM83.188,28.156V0H35.922C32.779,0,30.25,2.215,30.25,4.969V59.625H55.5v-13.5c0-2.961,4.088-4.43,6.475-2.339L84.568,63.766a3.223,3.223,0,0,1,0,4.969L61.952,88.692c-2.387,2.091-6.475.621-6.475-2.339V72.875H30.25v28.156c0,2.754,2.529,4.969,5.672,4.969h79.406c3.143,0,5.672-2.215,5.672-4.969V33.125H88.859C85.74,33.125,83.188,30.889,83.188,28.156Z" transform="translate(-4)" fill="#f57278"/>
</svg>
