<svg xmlns="http://www.w3.org/2000/svg" width="75.174" height="75.174" viewBox="0 0 75.174 75.174">
  <g id="이미지_아이콘" data-name="이미지 아이콘" transform="translate(-2.875 -2.875)">
    <path id="패스_90" data-name="패스 90" d="M8.524,39.734h34a.993.993,0,0,0,.8-1.569L26.318,10.813a.983.983,0,0,0-1.623,0L7.7,38.165A1,1,0,0,0,8.524,39.734Z" transform="translate(6.37 10.767)" fill="#f57278" stroke="#000" stroke-width="1"/>
    <path id="패스_91" data-name="패스 91" d="M21.672,22.286l6.241,9.931a.966.966,0,0,0,.8.428H38.2a.993.993,0,0,0,.8-1.569L28.019,15.44a.983.983,0,0,0-1.623,0l-4.743,5.724A1.028,1.028,0,0,0,21.672,22.286Z" transform="translate(27.83 17.872)" fill="#f57278" stroke="#000" stroke-width="1"/>
    <path id="패스_92" data-name="패스 92" d="M28.016,17.837a4.992,4.992,0,1,0-5.474-5.474A5.01,5.01,0,0,0,28.016,17.837Z" transform="translate(29.402 6.917)" fill="#f57278" stroke="#000" stroke-width="1"/>
    <path id="패스_93" data-name="패스 93" d="M71.843,3.375H9.081A5.7,5.7,0,0,0,3.375,9.081V71.843a5.7,5.7,0,0,0,5.706,5.706H71.843a5.7,5.7,0,0,0,5.706-5.706V9.081A5.7,5.7,0,0,0,71.843,3.375ZM71.362,53.3a1.431,1.431,0,0,1-1.426,1.426H10.989A1.431,1.431,0,0,1,9.562,53.3V10.989a1.431,1.431,0,0,1,1.426-1.426H69.953a1.431,1.431,0,0,1,1.426,1.426V53.3Z" transform="translate(0 0)" fill="#f57278" stroke="#000" stroke-width="1"/>
  </g>
</svg>
